<?xml version="1.0" encoding="UTF-8" standalone="no"?>
<!-- Svg Vector Icons : http://www.onlinewebfonts.com/icon -->

<svg
   xmlns:dc="http://purl.org/dc/elements/1.1/"
   xmlns:cc="http://creativecommons.org/ns#"
   xmlns:rdf="http://www.w3.org/1999/02/22-rdf-syntax-ns#"
   xmlns:svg="http://www.w3.org/2000/svg"
   xmlns="http://www.w3.org/2000/svg"
   xmlns:sodipodi="http://sodipodi.sourceforge.net/DTD/sodipodi-0.dtd"
   xmlns:inkscape="http://www.inkscape.org/namespaces/inkscape"
   version="1.1"
   x="0px"
   y="0px"
   viewBox="0 0 14 14"
   enable-background="new 0 0 1000 1000"
   xml:space="preserve"
   id="svg2"
   inkscape:version="0.92.3 (2405546, 2018-03-11)"
   sodipodi:docname="metronome.svg"
   width="14"
   height="14"><defs
     id="defs14" /><sodipodi:namedview
     pagecolor="#ffffff"
     bordercolor="#666666"
     borderopacity="1"
     objecttolerance="10"
     gridtolerance="10"
     guidetolerance="10"
     inkscape:pageopacity="0"
     inkscape:pageshadow="2"
     inkscape:window-width="1386"
     inkscape:window-height="849"
     id="namedview12"
     showgrid="false"
     inkscape:zoom="24.875852"
     inkscape:cx="5.6196811"
     inkscape:cy="9.0341412"
     inkscape:window-x="0"
     inkscape:window-y="34"
     inkscape:window-maximized="0"
     inkscape:current-layer="svg2"
     fit-margin-top="0"
     fit-margin-left="0"
     fit-margin-right="0"
     fit-margin-bottom="0" /><metadata
     id="metadata4"> Svg Vector Icons : http://www.onlinewebfonts.com/icon <rdf:RDF><cc:Work
     rdf:about=""><dc:format>image/svg+xml</dc:format><dc:type
       rdf:resource="http://purl.org/dc/dcmitype/StillImage" /><dc:title></dc:title></cc:Work></rdf:RDF></metadata><g
     id="g6"
     style="fill:#ffffff"
     transform="matrix(0.01428571,0,0,0.01428571,-0.1378661,-0.14285329)"><path
       d="m 290,500 c 3.9,0 7.7,-0.2 11.5,-0.5 L 430,850 h 70 L 363.9,478.9 C 403.6,454.2 430,410.2 430,360 430,282.7 367.3,220 290,220 c -77.3,0 -140,62.7 -140,140 0,77.3 62.7,140 140,140 z"
       id="path8"
       style="fill:#ffffff"
       inkscape:connector-curvature="0" /><path
       d="M 537,35.1 C 531.2,20.4 516.8,10 500,10 483.2,10 468.8,20.4 463,35.1 l -59.5,148.3 c 24,15.4 44.6,35.6 60.5,59.1 l 25.5,-66.6 c 1.6,-4.2 5.7,-7.2 10.5,-7.2 4.8,0 8.9,3 10.5,7.2 L 780,881.3 H 220 L 297.3,679 256.4,567.3 c -2.1,-0.3 -4.3,-0.7 -6.4,-1.1 L 80,990 h 840 z"
       id="path10"
       style="fill:#ffffff"
       inkscape:connector-curvature="0" /></g></svg>